<svg width="14" height="17" viewBox="0 0 14 17" fill="none" xmlns="http://www.w3.org/2000/svg">
<path d="M13.5672 4.55781L9.19219 0.182813C9.1341 0.124791 9.06515 0.0787825 8.98928 0.0474149C8.91341 0.0160474 8.8321 -6.43662e-05 8.75 1.93249e-07H1.25C0.918479 1.93249e-07 0.600537 0.131696 0.366116 0.366117C0.131696 0.600537 0 0.91848 0 1.25V15C0 15.3315 0.131696 15.6495 0.366116 15.8839C0.600537 16.1183 0.918479 16.25 1.25 16.25H12.5C12.8315 16.25 13.1495 16.1183 13.3839 15.8839C13.6183 15.6495 13.75 15.3315 13.75 15V5C13.7501 4.9179 13.734 4.83659 13.7026 4.76072C13.6712 4.68485 13.6252 4.6159 13.5672 4.55781ZM9.375 2.13359L11.6164 4.375H9.375V2.13359ZM12.5 15H1.25V1.25H8.125V5C8.125 5.16576 8.19085 5.32473 8.30806 5.44194C8.42527 5.55915 8.58424 5.625 8.75 5.625H12.5V15ZM9.19219 10.1828C9.2503 10.2409 9.2964 10.3098 9.32785 10.3857C9.3593 10.4615 9.37549 10.5429 9.37549 10.625C9.37549 10.7071 9.3593 10.7885 9.32785 10.8643C9.2964 10.9402 9.2503 11.0091 9.19219 11.0672L7.31719 12.9422C7.25914 13.0003 7.19021 13.0464 7.11434 13.0779C7.03846 13.1093 6.95713 13.1255 6.875 13.1255C6.79287 13.1255 6.71154 13.1093 6.63566 13.0779C6.55979 13.0464 6.49086 13.0003 6.43281 12.9422L4.55781 11.0672C4.44054 10.9499 4.37465 10.7909 4.37465 10.625C4.37465 10.4591 4.44054 10.3001 4.55781 10.1828C4.67509 10.0655 4.83415 9.99965 5 9.99965C5.16585 9.99965 5.32491 10.0655 5.44219 10.1828L6.25 10.9914V7.5C6.25 7.33424 6.31585 7.17527 6.43306 7.05806C6.55027 6.94085 6.70924 6.875 6.875 6.875C7.04076 6.875 7.19973 6.94085 7.31694 7.05806C7.43415 7.17527 7.5 7.33424 7.5 7.5V10.9914L8.30781 10.1828C8.36586 10.1247 8.43479 10.0786 8.51066 10.0471C8.58654 10.0157 8.66787 9.99951 8.75 9.99951C8.83213 9.99951 8.91346 10.0157 8.98934 10.0471C9.06521 10.0786 9.13414 10.1247 9.19219 10.1828Z" fill="white"/>
</svg>
