<svg width="17" height="17" viewBox="0 0 17 17" fill="none" xmlns="http://www.w3.org/2000/svg">
<path d="M15 0H1.25C0.918479 0 0.600537 0.131696 0.366116 0.366116C0.131696 0.600537 0 0.918479 0 1.25V15C0 15.3315 0.131696 15.6495 0.366116 15.8839C0.600537 16.1183 0.918479 16.25 1.25 16.25H15C15.3315 16.25 15.6495 16.1183 15.8839 15.8839C16.1183 15.6495 16.25 15.3315 16.25 15V1.25C16.25 0.918479 16.1183 0.600537 15.8839 0.366116C15.6495 0.131696 15.3315 0 15 0ZM15 15H1.25V1.25H15V15ZM5.625 6.875V11.875C5.625 12.0408 5.55915 12.1997 5.44194 12.3169C5.32473 12.4342 5.16576 12.5 5 12.5C4.83424 12.5 4.67527 12.4342 4.55806 12.3169C4.44085 12.1997 4.375 12.0408 4.375 11.875V6.875C4.375 6.70924 4.44085 6.55027 4.55806 6.43306C4.67527 6.31585 4.83424 6.25 5 6.25C5.16576 6.25 5.32473 6.31585 5.44194 6.43306C5.55915 6.55027 5.625 6.70924 5.625 6.875ZM12.5 9.0625V11.875C12.5 12.0408 12.4342 12.1997 12.3169 12.3169C12.1997 12.4342 12.0408 12.5 11.875 12.5C11.7092 12.5 11.5503 12.4342 11.4331 12.3169C11.3158 12.1997 11.25 12.0408 11.25 11.875V9.0625C11.25 8.6481 11.0854 8.25067 10.7924 7.95765C10.4993 7.66462 10.1019 7.5 9.6875 7.5C9.2731 7.5 8.87567 7.66462 8.58265 7.95765C8.28962 8.25067 8.125 8.6481 8.125 9.0625V11.875C8.125 12.0408 8.05915 12.1997 7.94194 12.3169C7.82473 12.4342 7.66576 12.5 7.5 12.5C7.33424 12.5 7.17527 12.4342 7.05806 12.3169C6.94085 12.1997 6.875 12.0408 6.875 11.875V6.875C6.87578 6.72191 6.93271 6.57443 7.03501 6.46053C7.13731 6.34664 7.27785 6.27425 7.42998 6.2571C7.58211 6.23995 7.73524 6.27923 7.86033 6.3675C7.98541 6.45576 8.07376 6.58686 8.10859 6.73594C8.5314 6.44912 9.02434 6.28289 9.53449 6.25509C10.0446 6.2273 10.5527 6.33899 11.0042 6.57817C11.4556 6.81736 11.8334 7.175 12.097 7.61269C12.3605 8.05038 12.4998 8.55159 12.5 9.0625ZM5.9375 4.6875C5.9375 4.87292 5.88252 5.05418 5.7795 5.20835C5.67649 5.36252 5.53007 5.48268 5.35877 5.55364C5.18746 5.62459 4.99896 5.64316 4.8171 5.60699C4.63525 5.57081 4.4682 5.48152 4.33709 5.35041C4.20598 5.2193 4.11669 5.05225 4.08051 4.8704C4.04434 4.68854 4.06291 4.50004 4.13386 4.32873C4.20482 4.15743 4.32498 4.01101 4.47915 3.908C4.63332 3.80498 4.81458 3.75 5 3.75C5.24864 3.75 5.4871 3.84877 5.66291 4.02459C5.83873 4.2004 5.9375 4.43886 5.9375 4.6875Z" fill="#0A8DDB"/>
</svg>
