<svg width="13" height="13" viewBox="0 0 13 13" fill="none" xmlns="http://www.w3.org/2000/svg">
<path d="M7.51688 0.870499C7.53385 0.807043 7.56316 0.747554 7.60313 0.69543C7.64311 0.643306 7.69296 0.599569 7.74984 0.566718C7.80672 0.533866 7.86951 0.512544 7.93464 0.503971C7.99976 0.495397 8.06594 0.499739 8.12938 0.516749C9.0563 0.758592 9.90199 1.24315 10.5794 1.92052C11.2567 2.59789 11.7413 3.44358 11.9831 4.3705C12.0001 4.43394 12.0045 4.50012 11.9959 4.56524C11.9873 4.63037 11.966 4.69316 11.9332 4.75004C11.9003 4.80692 11.8566 4.85677 11.8044 4.89675C11.7523 4.93672 11.6928 4.96603 11.6294 4.983C11.5871 4.99409 11.5437 4.99976 11.5 4.99987C11.3898 4.99987 11.2827 4.96347 11.1954 4.89634C11.108 4.8292 11.0453 4.73509 11.0169 4.62862C10.8196 3.87195 10.4242 3.18157 9.87124 2.62864C9.31831 2.07571 8.62793 1.68024 7.87126 1.483C7.80774 1.46609 7.74819 1.43683 7.696 1.39689C7.6438 1.35695 7.6 1.30711 7.56708 1.25022C7.53417 1.19333 7.51279 1.13051 7.50418 1.06536C7.49557 1.0002 7.49988 0.933985 7.51688 0.870499ZM7.37126 3.483C8.23313 3.713 8.78688 4.26675 9.01688 5.12862C9.04525 5.23509 9.108 5.3292 9.19536 5.39634C9.28273 5.46347 9.38982 5.49987 9.50001 5.49987C9.54367 5.49976 9.58715 5.49409 9.62938 5.483C9.69284 5.46603 9.75233 5.43672 9.80445 5.39675C9.85657 5.35677 9.90031 5.30692 9.93316 5.25004C9.96601 5.19316 9.98734 5.13037 9.99591 5.06524C10.0045 5.00012 10.0001 4.93394 9.98313 4.8705C9.66313 3.673 8.82688 2.83675 7.62938 2.51675C7.50125 2.48252 7.36477 2.50059 7.24996 2.56699C7.13515 2.63339 7.05142 2.74268 7.01719 2.87081C6.98296 2.99894 7.00104 3.13543 7.06744 3.25023C7.13384 3.36504 7.24312 3.44877 7.37126 3.483ZM12.4925 9.44237C12.3811 10.2893 11.9651 11.0666 11.3224 11.6293C10.6797 12.1919 9.8542 12.5014 9.00001 12.4999C4.03751 12.4999 5.6554e-06 8.46237 5.6554e-06 3.49987C-0.00152558 2.64568 0.307935 1.82014 0.870589 1.17743C1.43324 0.534729 2.21061 0.118815 3.05751 0.00737351C3.27166 -0.0187759 3.48854 0.0250373 3.67575 0.132273C3.86296 0.239508 4.01047 0.404414 4.09626 0.602374L5.41626 3.54925V3.55675C5.48194 3.70828 5.50906 3.87372 5.49521 4.0383C5.48136 4.20287 5.42696 4.36145 5.33688 4.49987C5.32563 4.51675 5.31376 4.53237 5.30126 4.548L4.00001 6.0905C4.46813 7.04175 5.46313 8.028 6.42688 8.49737L7.94813 7.203C7.96307 7.19044 7.97872 7.17875 7.99501 7.168C8.13331 7.07575 8.29244 7.01944 8.45799 7.00416C8.62353 6.98888 8.79028 7.01512 8.94313 7.0805L8.95126 7.08425L11.8956 8.40362C12.0939 8.48911 12.2592 8.63649 12.3668 8.82372C12.4744 9.01096 12.5185 9.228 12.4925 9.44237ZM11.5 9.31737C11.5 9.31737 11.4956 9.31737 11.4931 9.31737L8.55563 8.00175L7.03376 9.29612C7.01899 9.30863 7.00355 9.32031 6.98751 9.33112C6.8436 9.42713 6.67726 9.48416 6.50472 9.49665C6.33218 9.50914 6.15936 9.47665 6.00313 9.40237C4.83251 8.83675 3.66563 7.67862 3.09938 6.5205C3.0244 6.36541 2.99075 6.19358 3.0017 6.02166C3.01265 5.84974 3.06783 5.68357 3.16188 5.53925C3.17248 5.5223 3.18439 5.50621 3.19751 5.49112L4.50001 3.94675L3.18751 1.00925C3.18726 1.00675 3.18726 1.00424 3.18751 1.00175C2.58141 1.08081 2.02493 1.3781 1.62226 1.83795C1.2196 2.29779 0.998368 2.88865 1.00001 3.49987C1.00232 5.62089 1.84592 7.65438 3.34571 9.15417C4.8455 10.654 6.87898 11.4976 9.00001 11.4999C9.61085 11.502 10.2016 11.2815 10.6617 10.8797C11.1218 10.4779 11.4198 9.92231 11.5 9.31675V9.31737Z" fill="black"/>
</svg>
