<svg width="20" height="20" viewBox="0 0 20 20" fill="none" xmlns="http://www.w3.org/2000/svg">
<path d="M19.4866 10.5644C19.3272 12.4169 18.6421 14.1853 17.5119 15.6617C16.3816 17.138 14.8532 18.2608 13.1065 18.898C11.3598 19.5352 9.4674 19.6603 7.65201 19.2585C5.83662 18.8568 4.17374 17.9449 2.85901 16.6301C1.54427 15.3154 0.632378 13.6525 0.230611 11.8371C-0.171155 10.0217 -0.0460808 8.12936 0.591119 6.38264C1.22832 4.63592 2.35114 3.10752 3.82747 1.97726C5.30381 0.846995 7.07224 0.161891 8.92472 0.00254807C9.02321 -0.00557747 9.12233 0.00577581 9.21644 0.0359598C9.31054 0.0661438 9.39778 0.114567 9.47317 0.178466C9.54856 0.242364 9.61062 0.320486 9.65582 0.40837C9.70102 0.496255 9.72847 0.592182 9.73659 0.690673C9.74472 0.789164 9.73336 0.888292 9.70318 0.982396C9.67299 1.0765 9.62457 1.16374 9.56067 1.23913C9.49677 1.31452 9.41865 1.37658 9.33077 1.42178C9.24288 1.46698 9.14696 1.49442 9.04847 1.50255C7.48058 1.63726 5.98378 2.21699 4.73419 3.17351C3.4846 4.13004 2.53421 5.42357 1.99483 6.90192C1.45546 8.38026 1.34954 9.9819 1.68954 11.5184C2.02955 13.0549 2.80133 14.4623 3.91408 15.5751C5.02683 16.6878 6.43425 17.4596 7.97074 17.7996C9.50724 18.1396 11.1089 18.0337 12.5872 17.4943C14.0656 16.9549 15.3591 16.0045 16.3156 14.7549C17.2722 13.5054 17.8519 12.0086 17.9866 10.4407C18.003 10.2418 18.0978 10.0575 18.25 9.92846C18.4023 9.79942 18.5996 9.73614 18.7985 9.75255C18.9974 9.76896 19.1816 9.86371 19.3107 10.016C19.4397 10.1682 19.503 10.3655 19.4866 10.5644ZM8.98659 4.50255V9.75255C8.98659 9.95146 9.06561 10.1422 9.20626 10.2829C9.34691 10.4235 9.53768 10.5025 9.73659 10.5025H14.9866C15.1855 10.5025 15.3763 10.4235 15.5169 10.2829C15.6576 10.1422 15.7366 9.95146 15.7366 9.75255C15.7366 9.55364 15.6576 9.36287 15.5169 9.22222C15.3763 9.08157 15.1855 9.00255 14.9866 9.00255H10.4866V4.50255C10.4866 4.30364 10.4076 4.11287 10.2669 3.97222C10.1263 3.83157 9.9355 3.75255 9.73659 3.75255C9.53768 3.75255 9.34691 3.83157 9.20626 3.97222C9.06561 4.11287 8.98659 4.30364 8.98659 4.50255ZM12.7366 2.25255C12.9591 2.25255 13.1766 2.18657 13.3616 2.06295C13.5466 1.93933 13.6908 1.76363 13.776 1.55807C13.8611 1.3525 13.8834 1.1263 13.84 0.908072C13.7966 0.689843 13.6894 0.489387 13.5321 0.332053C13.3748 0.174719 13.1743 0.0675731 12.9561 0.0241647C12.7378 -0.0192437 12.5116 0.00303509 12.3061 0.0881837C12.1005 0.173332 11.9248 0.317526 11.8012 0.502531C11.6776 0.687537 11.6116 0.905044 11.6116 1.12755C11.6116 1.42592 11.7301 1.71206 11.9411 1.92304C12.1521 2.13402 12.4382 2.25255 12.7366 2.25255ZM16.1116 4.50255C16.3341 4.50255 16.5516 4.43657 16.7366 4.31295C16.9216 4.18933 17.0658 4.01363 17.151 3.80807C17.2361 3.6025 17.2584 3.3763 17.215 3.15807C17.1716 2.93984 17.0644 2.73939 16.9071 2.58205C16.7498 2.42472 16.5493 2.31757 16.3311 2.27416C16.1128 2.23076 15.8866 2.25303 15.6811 2.33818C15.4755 2.42333 15.2998 2.56753 15.1762 2.75253C15.0526 2.93754 14.9866 3.15504 14.9866 3.37755C14.9866 3.67592 15.1051 3.96206 15.3161 4.17304C15.5271 4.38402 15.8132 4.50255 16.1116 4.50255ZM18.3616 7.87755C18.5841 7.87755 18.8016 7.81157 18.9866 7.68795C19.1716 7.56433 19.3158 7.38863 19.401 7.18307C19.4861 6.9775 19.5084 6.7513 19.465 6.53307C19.4216 6.31484 19.3144 6.11439 19.1571 5.95705C18.9998 5.79972 18.7993 5.69257 18.5811 5.64916C18.3628 5.60576 18.1366 5.62804 17.9311 5.71318C17.7255 5.79833 17.5498 5.94253 17.4262 6.12753C17.3026 6.31254 17.2366 6.53004 17.2366 6.75255C17.2366 7.05092 17.3551 7.33706 17.5661 7.54804C17.7771 7.75902 18.0632 7.87755 18.3616 7.87755Z" fill="#053759"/>
</svg>
